<svg xmlns="http://www.w3.org/2000/svg" viewBox="0 0 512 512" width="512" height="512">
  <defs>
    <linearGradient id="bg-gradient" x1="0" y1="0" x2="0" y2="1">
      <stop offset="0%" stop-color="rgb(41, 94, 166)"/>
      <stop offset="100%" stop-color="rgb(24, 68, 115)"/>
    </linearGradient>
  </defs>
  <path d="M 512.0,256.0 L 511.95,320.13 L 511.8,340.61 L 511.54,355.47 L 511.19,367.55 L 510.73,377.89 L 510.18,387.02 L 509.52,395.23 L 508.75,402.72 L 507.88,409.63 L 506.91,416.04 L 505.84,422.03 L 504.65,427.65 L 503.36,432.94 L 501.96,437.93 L 500.45,442.66 L 498.83,447.15 L 497.1,451.41 L 495.25,455.46 L 493.28,459.31 L 491.19,462.98 L 488.98,466.47 L 486.65,469.8 L 484.19,472.97 L 481.59,475.99 L 478.86,478.86 L 475.99,481.59 L 472.97,484.19 L 469.8,486.65 L 466.47,488.98 L 462.98,491.19 L 459.31,493.28 L 455.46,495.25 L 451.41,497.1 L 447.15,498.83 L 442.66,500.45 L 437.93,501.96 L 432.94,503.36 L 427.65,504.65 L 422.03,505.84 L 416.04,506.91 L 409.63,507.88 L 402.72,508.75 L 395.23,509.52 L 387.02,510.18 L 377.89,510.73 L 367.55,511.19 L 355.47,511.54 L 340.61,511.8 L 320.13,511.95 L 256.0,512.0 L 191.87,511.95 L 171.39,511.8 L 156.53,511.54 L 144.45,511.19 L 134.11,510.73 L 124.98,510.18 L 116.77,509.52 L 109.28,508.75 L 102.37,507.88 L 95.96,506.91 L 89.97,505.84 L 84.35,504.65 L 79.06,503.36 L 74.07,501.96 L 69.34,500.45 L 64.85,498.83 L 60.59,497.1 L 56.54,495.25 L 52.69,493.28 L 49.02,491.19 L 45.53,488.98 L 42.2,486.65 L 39.03,484.19 L 36.01,481.59 L 33.14,478.86 L 30.41,475.99 L 27.81,472.97 L 25.35,469.8 L 23.02,466.47 L 20.81,462.98 L 18.72,459.31 L 16.75,455.46 L 14.9,451.41 L 13.17,447.15 L 11.55,442.66 L 10.04,437.93 L 8.64,432.94 L 7.35,427.65 L 6.16,422.03 L 5.09,416.04 L 4.12,409.63 L 3.25,402.72 L 2.48,395.23 L 1.82,387.02 L 1.27,377.89 L 0.81,367.55 L 0.46,355.47 L 0.2,340.61 L 0.05,320.13 L 0.0,256.0 L 0.05,191.87 L 0.2,171.39 L 0.46,156.53 L 0.81,144.45 L 1.27,134.11 L 1.82,124.98 L 2.48,116.77 L 3.25,109.28 L 4.12,102.37 L 5.09,95.96 L 6.16,89.97 L 7.35,84.35 L 8.64,79.06 L 10.04,74.07 L 11.55,69.34 L 13.17,64.85 L 14.9,60.59 L 16.75,56.54 L 18.72,52.69 L 20.81,49.02 L 23.02,45.53 L 25.35,42.2 L 27.81,39.03 L 30.41,36.01 L 33.14,33.14 L 36.01,30.41 L 39.03,27.81 L 42.2,25.35 L 45.53,23.02 L 49.02,20.81 L 52.69,18.72 L 56.54,16.75 L 60.59,14.9 L 64.85,13.17 L 69.34,11.55 L 74.07,10.04 L 79.06,8.64 L 84.35,7.35 L 89.97,6.16 L 95.96,5.09 L 102.37,4.12 L 109.28,3.25 L 116.77,2.48 L 124.98,1.82 L 134.11,1.27 L 144.45,0.81 L 156.53,0.46 L 171.39,0.2 L 191.87,0.05 L 256.0,0.0 L 320.13,0.05 L 340.61,0.2 L 355.47,0.46 L 367.55,0.81 L 377.89,1.27 L 387.02,1.82 L 395.23,2.48 L 402.72,3.25 L 409.63,4.12 L 416.04,5.09 L 422.03,6.16 L 427.65,7.35 L 432.94,8.64 L 437.93,10.04 L 442.66,11.55 L 447.15,13.17 L 451.41,14.9 L 455.46,16.75 L 459.31,18.72 L 462.98,20.81 L 466.47,23.02 L 469.8,25.35 L 472.97,27.81 L 475.99,30.41 L 478.86,33.14 L 481.59,36.01 L 484.19,39.03 L 486.65,42.2 L 488.98,45.53 L 491.19,49.02 L 493.28,52.69 L 495.25,56.54 L 497.1,60.59 L 498.83,64.85 L 500.45,69.34 L 501.96,74.07 L 503.36,79.06 L 504.65,84.35 L 505.84,89.97 L 506.91,95.96 L 507.88,102.37 L 508.75,109.28 L 509.52,116.77 L 510.18,124.98 L 510.73,134.11 L 511.19,144.45 L 511.54,156.53 L 511.8,171.39 L 511.95,191.87 Z" fill="url(#bg-gradient)"/>
  <text x="256" y="256" font-family="Quantico" font-size="300" font-weight="700" fill="rgb(214, 218, 235)" text-anchor="middle" dominant-baseline="central" letter-spacing="-8">SK</text>
</svg>
